<?xml version="1.0" encoding="utf-8"?>
<!-- Generator: Adobe Illustrator 27.0.0, SVG Export Plug-In . SVG Version: 6.00 Build 0)  -->
<svg version="1.1" id="Layer_1" xmlns="http://www.w3.org/2000/svg" xmlns:xlink="http://www.w3.org/1999/xlink" x="0px" y="0px"
	 viewBox="0 0 119.43 113.59" style="enable-background:new 0 0 119.43 113.59;" xml:space="preserve">
<style type="text/css">
	.st0{fill:#D13326;}
</style>
<g>
	<path class="st0" d="M105.3,51.58c-3.25,0.28-5.53,2.96-5.54,6.61c-0.02,9.49,0,18.97-0.02,28.46c0,1.1-0.01,2.23-0.22,3.31
		c-1.23,6.1-6.13,9.94-12.7,9.95c-20.12,0.01-40.25,0.01-60.37,0c-1.01,0-2.03-0.03-3.02-0.23c-5.8-1.19-9.86-5.92-9.88-11.86
		c-0.06-20.7-0.03-41.41-0.01-62.11c0-0.72,0.06-1.45,0.21-2.15c1.25-5.99,6.1-9.86,12.47-9.88c9.87-0.03,19.74-0.02,29.61,0
		c1.73,0,3.35-0.3,4.72-1.44c1.99-1.64,2.74-4.37,1.89-6.79c-0.87-2.49-3.11-4.11-5.86-4.12C46.52,1.29,36.45,1.29,26.39,1.3
		C11.96,1.31,1.18,12.08,1.17,26.48c-0.01,10.06,0,20.13,0,30.19c0,10.4-0.05,20.8,0.01,31.2c0.08,13.34,10.94,24.3,24.28,24.36
		c20.8,0.09,41.59,0.07,62.39,0c10.17-0.03,19.41-6.61,22.72-16.22c0.88-2.55,1.42-5.34,1.47-8.04c0.17-10.01,0.09-20.03,0.06-30.04
		C112.09,54.01,109.09,51.26,105.3,51.58z"/>
	<path class="st0" d="M113.48,7.62c-2.51-0.57-4.48,0.35-6.24,2.11C90.82,26.19,74.38,42.64,57.96,59.1
		c-0.4,0.4-0.68,0.93-1.22,1.67c-0.69-0.82-1-1.26-1.37-1.63c-6.25-6.28-12.5-12.56-18.77-18.82c-2.69-2.68-6.51-2.75-9.02-0.21
		c-2.47,2.5-2.41,6.25,0.24,8.91c8.05,8.09,16.12,16.16,24.22,24.2c0.73,0.72,1.66,1.37,2.62,1.71c2.64,0.93,4.86,0.06,6.8-1.88
		c18.17-18.19,36.35-36.37,54.53-54.56c0.37-0.37,0.74-0.76,1.06-1.18C119.72,13.74,117.84,8.61,113.48,7.62z"/>
</g>
</svg>
