<?xml version="1.0" encoding="utf-8"?>
<!-- Generator: Adobe Illustrator 27.0.0, SVG Export Plug-In . SVG Version: 6.00 Build 0)  -->
<svg version="1.1" id="Layer_1" xmlns="http://www.w3.org/2000/svg" xmlns:xlink="http://www.w3.org/1999/xlink" x="0px" y="0px"
	 viewBox="0 0 560.46 113.59" style="enable-background:new 0 0 560.46 113.59;" xml:space="preserve">
<style type="text/css">
	.st0{fill:#FB651F;}
</style>
<g>
	<polygon class="st0" points="119.09,7.76 102.81,83.55 84.12,7.76 60.42,7.76 41.01,83.7 24.88,7.76 2.05,7.76 27.88,107.68 
		53.57,107.68 71.99,37.88 89.83,107.68 115.66,107.68 142.21,7.76 	"/>
	<path class="st0" d="M190.74,38.67c-5.42-3.09-11.75-4.64-18.98-4.64c-7.42,0-13.97,1.67-19.63,5c-5.66,3.33-10.02,7.9-13.06,13.7
		c-3.05,5.81-4.57,12.42-4.57,19.84c0,7.23,1.57,13.63,4.71,19.2s7.49,9.9,13.06,12.99c5.57,3.09,12.06,4.64,19.48,4.64
		c5.8,0,11.01-1.07,15.63-3.21c4.61-2.14,8.54-5.07,11.78-8.78c3.23-3.71,5.52-7.75,6.85-12.13h-21.84c-1.14,1.9-2.74,3.5-4.78,4.78
		c-2.05,1.28-4.69,1.93-7.92,1.93c-3.14,0-5.95-0.71-8.42-2.14c-2.48-1.43-4.33-3.45-5.57-6.07c-0.97-2.04-1.55-4.3-1.76-6.78h52
		c0.09-1.24,0.17-2.45,0.21-3.64c0.05-1.19,0.07-2.26,0.07-3.21c0-7.04-1.52-13.27-4.57-18.7
		C200.39,46.02,196.16,41.76,190.74,38.67z M156.2,64.43c0.34-1.71,0.84-3.26,1.49-4.64c1.38-2.9,3.31-5.07,5.78-6.49
		c2.47-1.43,5.28-2.14,8.42-2.14c4.09,0,7.47,1.24,10.13,3.71c2.66,2.48,4.14,5.66,4.42,9.56H156.2z"/>
	<path class="st0" d="M272.95,37.88c-4.09-2.57-9.18-3.85-15.27-3.85c-5.23,0-9.8,1.12-13.7,3.35c-3.9,2.24-6.99,5.07-9.28,8.49
		V4.91h-21.41v102.77h21.41V69.57c0-3.62,0.64-6.71,1.93-9.28c1.28-2.57,3.09-4.59,5.42-6.07c2.33-1.47,4.97-2.21,7.92-2.21
		c4.95,0,8.51,1.45,10.7,4.35c2.19,2.9,3.28,7.02,3.28,12.35v38.97h21.27V66.86c0-7.04-1.02-12.99-3.07-17.84
		C280.11,44.16,277.04,40.45,272.95,37.88z"/>
	<rect x="292.79" y="35.74" class="st0" width="21.41" height="71.94"/>
	<path class="st0" d="M312.98,7.48c-2.43-2.19-5.59-3.28-9.49-3.28c-3.81,0-6.9,1.1-9.28,3.28c-2.38,2.19-3.57,5-3.57,8.42
		c0,3.33,1.19,6.09,3.57,8.28c2.38,2.19,5.47,3.28,9.28,3.28c3.9,0,7.07-1.09,9.49-3.28c2.43-2.19,3.64-4.95,3.64-8.28
		C316.62,12.47,315.41,9.67,312.98,7.48z"/>
	<path class="st0" d="M370.01,34.03c-4.09,0-7.8,0.62-11.13,1.86c-3.33,1.24-6.28,2.95-8.85,5.14c-2.57,2.19-4.81,4.81-6.71,7.85
		l-1.86-13.13h-18.98v71.94h21.41V75.56c0-3.62,0.43-6.64,1.28-9.06s2.14-4.35,3.85-5.78c1.71-1.43,3.71-2.45,6-3.07
		c2.28-0.62,4.85-0.93,7.71-0.93h7.28V34.03z"/>
	<path class="st0" d="M425.24,38.67c-5.42-3.09-11.75-4.64-18.98-4.64c-7.42,0-13.97,1.67-19.63,5c-5.66,3.33-10.02,7.9-13.06,13.7
		c-3.05,5.81-4.57,12.42-4.57,19.84c0,7.23,1.57,13.63,4.71,19.2c3.14,5.57,7.49,9.9,13.06,12.99c5.57,3.09,12.06,4.64,19.48,4.64
		c5.8,0,11.01-1.07,15.63-3.21c4.61-2.14,8.54-5.07,11.77-8.78c3.23-3.71,5.52-7.75,6.85-12.13h-21.84c-1.14,1.9-2.74,3.5-4.78,4.78
		c-2.05,1.28-4.69,1.93-7.92,1.93c-3.14,0-5.95-0.71-8.42-2.14c-2.48-1.43-4.33-3.45-5.57-6.07c-0.97-2.04-1.55-4.3-1.76-6.78h52
		c0.09-1.24,0.17-2.45,0.21-3.64c0.05-1.19,0.07-2.26,0.07-3.21c0-7.04-1.52-13.27-4.57-18.7C434.9,46.02,430.67,41.76,425.24,38.67
		z M390.71,64.43c0.34-1.71,0.84-3.26,1.49-4.64c1.38-2.9,3.31-5.07,5.78-6.49c2.47-1.43,5.28-2.14,8.42-2.14
		c4.09,0,7.47,1.24,10.13,3.71c2.66,2.48,4.14,5.66,4.42,9.56H390.71z"/>
	<polygon class="st0" points="531.72,7.76 507.45,7.76 488.33,40.16 467.2,7.76 442.37,7.76 474.63,57.01 442.8,107.68 
		467.2,107.68 486.33,74.71 507.88,107.68 532.72,107.68 500.18,58.01 	"/>
	<path class="st0" d="M554.77,87.77c-2.43-2.33-5.54-3.5-9.35-3.5c-3.9,0-7.07,1.17-9.49,3.5c-2.43,2.33-3.64,5.21-3.64,8.63
		c0,3.33,1.21,6.16,3.64,8.49c2.43,2.33,5.59,3.5,9.49,3.5c3.8,0,6.92-1.16,9.35-3.5c2.43-2.33,3.64-5.16,3.64-8.49
		C558.41,92.97,557.2,90.1,554.77,87.77z"/>
</g>
</svg>
